<svg id="Layer_1" data-name="Layer 1" xmlns="http://www.w3.org/2000/svg" viewBox="0 0 535.06 124"><defs><style>.cls-1{fill:#8abae4;}.cls-2{fill:#fff;}</style></defs><circle class="cls-1" cx="62" cy="62" r="62"/><path class="cls-2" d="M230.6,319.9v18.89a55.73,55.73,0,0,1-13.29,1.84q-20.33,0-32.95-11.76t-12.63-30.95q0-17.81,12.75-29.4t32.21-11.58a58.67,58.67,0,0,1,13.91,1.54v18.95a51.11,51.11,0,0,0-12.67-1.73,19.88,19.88,0,0,0-15.14,6.43q-6,6.44-6,16.39,0,10.73,6.06,16.94T219,321.69A45.56,45.56,0,0,0,230.6,319.9Z" transform="translate(-145.67 -235.64)"/><path class="cls-2" d="M325.71,338.67H301.37l-3.94-13.29H272.71l-4.09,13.29H244.74l27.35-79.53h26.27ZM293,311.09a278.34,278.34,0,0,1-7.88-33.78h-.31a298.13,298.13,0,0,1-7.8,33.78Z" transform="translate(-145.67 -235.64)"/><path class="cls-2" d="M337.53,259.14h29q15.3,0,24.57,6.73t9.27,17.75a21,21,0,0,1-9.38,18.2q-9.39,6.58-26,6.59h-4v30.26H337.53Zm23.41,15.25v18.77q7.89-.12,11.63-2.33a7.49,7.49,0,0,0,3.75-7c0-3.41-1.21-5.83-3.63-7.24S366.35,274.47,360.94,274.39Z" transform="translate(-145.67 -235.64)"/><path class="cls-2" d="M482.94,338.67H458.6l-3.94-13.29H429.94l-4.1,13.29H402l27.35-79.53h26.27Zm-32.76-27.58a276.48,276.48,0,0,1-7.88-33.78H442a300.39,300.39,0,0,1-7.81,33.78Z" transform="translate(-145.67 -235.64)"/><path class="cls-2" d="M494.76,259.14h23.79q20.79,0,29.9,6.29t9.12,16q0,10.49-13.29,16.86,15.06,4.59,15.07,17.45,0,10.31-9.35,16.62t-24.65,6.32H494.76Zm23.41,15.25v17.16q15.68-.3,15.68-8.4,0-4.83-3.75-6.73T518.17,274.39Zm0,31.57v17.22q8.88-.12,13.32-2.12a6.77,6.77,0,0,0,4.45-6.58q0-8.52-15.84-8.52Z" transform="translate(-145.67 -235.64)"/><path class="cls-2" d="M575.42,259.14h23.41v61.12h18.54v18.41h-42Z" transform="translate(-145.67 -235.64)"/><path class="cls-2" d="M633.21,259.14h47.36v16.92h-24v14.65H677.4v16.5H656.62v14.48h24.1v17H633.21Z" transform="translate(-145.67 -235.64)"/></svg>